<svg version="1.1" xmlns="http://www.w3.org/2000/svg" viewBox="0 0 729.1999816894531 402.40000915527344" width="729.1999816894531" height="402.40000915527344">
  <!-- svg-source:excalidraw -->
  <rect x="0" y="0" width="729.1999816894531" height="402.40000915527344" fill="#ffffff"></rect><g stroke-linecap="round" transform="translate(369.2000427246094 14.800018310546875) rotate(0 26 25.199996948242188)"><path d="M14.23 2.22 C18.73 -0.56, 26.72 -0.87, 32.14 0.36 C37.55 1.58, 43.52 5.22, 46.74 9.58 C49.95 13.95, 51.69 21.09, 51.43 26.55 C51.16 32, 48.6 38.26, 45.15 42.3 C41.71 46.33, 36.16 49.96, 30.75 50.76 C25.34 51.56, 17.69 50.16, 12.68 47.11 C7.67 44.06, 2.61 37.65, 0.69 32.46 C-1.24 27.26, -1.43 21.1, 1.14 15.96 C3.72 10.82, 13.31 3.94, 16.14 1.63 C18.98 -0.69, 18 1.52, 18.17 2.06 M36.03 2.86 C40.77 4.62, 45.93 8.86, 48.58 13.5 C51.24 18.14, 53.28 25.66, 51.97 30.67 C50.66 35.69, 45.08 40.39, 40.7 43.58 C36.32 46.77, 30.89 49.53, 25.7 49.8 C20.5 50.08, 13.98 48.55, 9.54 45.24 C5.1 41.92, 0.15 35.57, -0.92 29.92 C-1.99 24.26, 0.15 15.85, 3.13 11.3 C6.11 6.76, 11.41 4.04, 16.96 2.65 C22.5 1.26, 33.09 2.85, 36.39 2.98 C39.7 3.1, 37.08 3.41, 36.79 3.42" stroke="#1e1e1e" stroke-width="1" fill="none"></path></g><g transform="translate(388.43526916034114 27.680926530806715) rotate(0 6.879997253417969 12.5)"><text x="6.879997253417969" y="0" font-family="Virgil, Segoe UI Emoji" font-size="20px" fill="#1e1e1e" text-anchor="middle" style="white-space: pre;" direction="ltr" dominant-baseline="text-before-edge">0</text></g><g transform="translate(10 10) rotate(0 46.559974670410156 150)"><text x="0" y="0" font-family="Virgil, Segoe UI Emoji" font-size="20px" fill="#1e1e1e" text-anchor="start" style="white-space: pre;" direction="ltr" dominant-baseline="text-before-edge">N = 9</text><text x="0" y="25" font-family="Virgil, Segoe UI Emoji" font-size="20px" fill="#1e1e1e" text-anchor="start" style="white-space: pre;" direction="ltr" dominant-baseline="text-before-edge">Root = 0</text><text x="0" y="50" font-family="Virgil, Segoe UI Emoji" font-size="20px" fill="#1e1e1e" text-anchor="start" style="white-space: pre;" direction="ltr" dominant-baseline="text-before-edge">0: -1</text><text x="0" y="75" font-family="Virgil, Segoe UI Emoji" font-size="20px" fill="#1e1e1e" text-anchor="start" style="white-space: pre;" direction="ltr" dominant-baseline="text-before-edge">1: 0</text><text x="0" y="100" font-family="Virgil, Segoe UI Emoji" font-size="20px" fill="#1e1e1e" text-anchor="start" style="white-space: pre;" direction="ltr" dominant-baseline="text-before-edge">2: 0</text><text x="0" y="125" font-family="Virgil, Segoe UI Emoji" font-size="20px" fill="#1e1e1e" text-anchor="start" style="white-space: pre;" direction="ltr" dominant-baseline="text-before-edge">3: 1</text><text x="0" y="150" font-family="Virgil, Segoe UI Emoji" font-size="20px" fill="#1e1e1e" text-anchor="start" style="white-space: pre;" direction="ltr" dominant-baseline="text-before-edge">4: 1</text><text x="0" y="175" font-family="Virgil, Segoe UI Emoji" font-size="20px" fill="#1e1e1e" text-anchor="start" style="white-space: pre;" direction="ltr" dominant-baseline="text-before-edge">5: 2</text><text x="0" y="200" font-family="Virgil, Segoe UI Emoji" font-size="20px" fill="#1e1e1e" text-anchor="start" style="white-space: pre;" direction="ltr" dominant-baseline="text-before-edge">6: 2</text><text x="0" y="225" font-family="Virgil, Segoe UI Emoji" font-size="20px" fill="#1e1e1e" text-anchor="start" style="white-space: pre;" direction="ltr" dominant-baseline="text-before-edge">7: 2</text><text x="0" y="250" font-family="Virgil, Segoe UI Emoji" font-size="20px" fill="#1e1e1e" text-anchor="start" style="white-space: pre;" direction="ltr" dominant-baseline="text-before-edge">8: 6</text><text x="0" y="275" font-family="Virgil, Segoe UI Emoji" font-size="20px" fill="#1e1e1e" text-anchor="start" style="white-space: pre;" direction="ltr" dominant-baseline="text-before-edge"></text></g><g stroke-linecap="round" transform="translate(217.60000610351562 117.00001525878906) rotate(0 26 25.199996948242188)"><path d="M25.12 -0.67 C30.39 -1.13, 37.86 1.83, 42.08 5.23 C46.3 8.63, 49.29 14.47, 50.45 19.74 C51.61 25.02, 51.49 32.03, 49.05 36.88 C46.62 41.72, 40.93 46.87, 35.84 48.8 C30.76 50.72, 23.7 50.08, 18.55 48.43 C13.39 46.78, 8.01 43.22, 4.91 38.91 C1.81 34.6, -0.57 27.79, -0.07 22.58 C0.43 17.36, 2.64 11.41, 7.9 7.61 C13.16 3.82, 26.37 0.52, 31.5 -0.22 C36.63 -0.95, 38.74 2.79, 38.66 3.18 M15.9 2.92 C20.67 0.43, 27.33 -0.55, 32.6 0.92 C37.87 2.38, 44.31 7.31, 47.53 11.71 C50.74 16.12, 52.69 21.84, 51.89 27.37 C51.09 32.91, 46.68 41.03, 42.71 44.93 C38.75 48.82, 33.25 50.47, 28.09 50.76 C22.92 51.05, 16.45 49.78, 11.71 46.65 C6.96 43.51, 0.94 37.52, -0.37 31.94 C-1.68 26.37, 1.37 18.08, 3.83 13.2 C6.3 8.32, 12.26 4.41, 14.41 2.66 C16.57 0.92, 16.43 2.22, 16.79 2.72" stroke="#1e1e1e" stroke-width="1" fill="none"></path></g><g transform="translate(241.0052307081927 129.8809234790489) rotate(0 2.7099990844726562 12.5)"><text x="2.7099990844726562" y="0" font-family="Virgil, Segoe UI Emoji" font-size="20px" fill="#1e1e1e" text-anchor="middle" style="white-space: pre;" direction="ltr" dominant-baseline="text-before-edge">1</text></g><g stroke-linecap="round" transform="translate(501.1999816894531 105.20002746582031) rotate(0 26 25.199996948242188)"><path d="M20.29 1.36 C25.46 -0.25, 32.6 -0.44, 37.67 1.92 C42.74 4.29, 48.37 10.3, 50.69 15.55 C53.02 20.81, 53.31 28.36, 51.63 33.46 C49.94 38.56, 45.42 43.34, 40.58 46.15 C35.74 48.97, 28.33 50.86, 22.59 50.35 C16.84 49.84, 9.85 47.19, 6.12 43.09 C2.39 38.98, 0.25 31.35, 0.2 25.73 C0.14 20.12, 2.03 13.68, 5.78 9.38 C9.53 5.09, 19.11 1.48, 22.69 -0.03 C26.28 -1.54, 26.94 -0.01, 27.27 0.34 M28.8 -0.89 C34.1 -0.52, 39.78 4.41, 43.49 8.22 C47.2 12.02, 50.35 16.82, 51.05 21.95 C51.75 27.07, 50.79 34.35, 47.69 38.97 C44.58 43.59, 37.57 48.31, 32.42 49.66 C27.27 51.01, 21.79 49.27, 16.79 47.08 C11.79 44.88, 5.25 41.26, 2.41 36.48 C-0.42 31.69, -1.85 23.58, -0.24 18.37 C1.38 13.15, 7.43 8.1, 12.08 5.18 C16.73 2.26, 24.93 1.47, 27.66 0.83 C30.39 0.2, 28.29 1.18, 28.46 1.36" stroke="#1e1e1e" stroke-width="1" fill="none"></path></g><g transform="translate(520.1952102614155 118.08093568608015) rotate(0 7.1199951171875 12.5)"><text x="7.1199951171875" y="0" font-family="Virgil, Segoe UI Emoji" font-size="20px" fill="#1e1e1e" text-anchor="middle" style="white-space: pre;" direction="ltr" dominant-baseline="text-before-edge">2</text></g><g stroke-linecap="round" transform="translate(188.60000610351562 240.00001525878906) rotate(0 26 25.199996948242188)"><path d="M35.61 1.79 C40.81 3.56, 47.62 9.83, 50.15 14.69 C52.68 19.56, 52.14 25.89, 50.79 30.97 C49.44 36.04, 46.25 41.92, 42.05 45.16 C37.85 48.41, 31.06 50.53, 25.59 50.42 C20.11 50.32, 13.43 48.29, 9.2 44.53 C4.98 40.76, 0.92 33.47, 0.24 27.85 C-0.45 22.22, 2.04 15.22, 5.11 10.78 C8.19 6.34, 12.7 2.29, 18.69 1.22 C24.67 0.15, 36.58 3.04, 41.01 4.35 C45.44 5.65, 45.6 8.55, 45.29 9.04 M20.88 -1.02 C26.01 -2.32, 33.49 0.74, 38.55 3.67 C43.6 6.61, 49.16 11.38, 51.24 16.58 C53.32 21.77, 53 29.82, 51.03 34.82 C49.06 39.83, 44.14 44.3, 39.4 46.61 C34.66 48.92, 27.91 49.46, 22.59 48.67 C17.27 47.87, 11.41 45.87, 7.48 41.84 C3.54 37.81, -0.94 29.74, -1 24.49 C-1.05 19.24, 3.68 14.49, 7.16 10.35 C10.63 6.22, 17.53 1.05, 19.86 -0.34 C22.19 -1.73, 20.89 1.24, 21.15 1.99" stroke="#1e1e1e" stroke-width="1" fill="none"></path></g><g transform="translate(207.9052322340716 252.8809234790489) rotate(0 6.80999755859375 12.5)"><text x="6.80999755859375" y="0" font-family="Virgil, Segoe UI Emoji" font-size="20px" fill="#1e1e1e" text-anchor="middle" style="white-space: pre;" direction="ltr" dominant-baseline="text-before-edge">3</text></g><g stroke-linecap="round" transform="translate(298.4000549316406 240.40003967285156) rotate(0 26 25.199996948242188)"><path d="M19.82 0.76 C25.04 -0.67, 33.98 0.69, 38.89 3.12 C43.79 5.55, 47.24 10.55, 49.24 15.32 C51.24 20.09, 52.29 26.47, 50.9 31.75 C49.51 37.04, 45.67 43.85, 40.89 47.03 C36.11 50.22, 27.96 51.67, 22.24 50.87 C16.51 50.07, 10.07 46.16, 6.53 42.22 C2.98 38.27, 1.09 32.49, 0.97 27.21 C0.85 21.94, 2.1 14.99, 5.8 10.57 C9.5 6.15, 19.63 2.54, 23.17 0.71 C26.71 -1.12, 26.98 -0.81, 27.06 -0.4 M21.44 -0.37 C26.17 -1.7, 32.51 0.31, 37.32 3.08 C42.12 5.86, 48.24 11.39, 50.26 16.26 C52.28 21.13, 51.18 27.48, 49.43 32.3 C47.68 37.13, 44.21 42.44, 39.74 45.22 C35.27 48.01, 28.02 49.56, 22.63 49.02 C17.24 48.47, 11.15 45.85, 7.38 41.95 C3.61 38.05, 0.48 30.86, 0 25.64 C-0.49 20.41, 1.13 15.03, 4.44 10.6 C7.76 6.18, 17.29 0.54, 19.89 -0.92 C22.5 -2.38, 20.08 0.97, 20.08 1.83" stroke="#1e1e1e" stroke-width="1" fill="none"></path></g><g transform="translate(318.115284724306 253.2809478931114) rotate(0 6.399993896484375 12.5)"><text x="6.399993896484375" y="0" font-family="Virgil, Segoe UI Emoji" font-size="20px" fill="#1e1e1e" text-anchor="middle" style="white-space: pre;" direction="ltr" dominant-baseline="text-before-edge">4</text></g><g stroke-linecap="round"><g transform="translate(260.3999938964844 120.40000915527344) rotate(0 54.85678994786929 -32.82001135012601)"><path d="M0.34 -0.63 C18.51 -11.66, 90.19 -56.28, 108.51 -67.3 M-0.93 1.66 C17.63 -9.16, 92.19 -55.03, 110.65 -66.23" stroke="#1e1e1e" stroke-width="1" fill="none"></path></g></g><mask></mask><g stroke-linecap="round"><g transform="translate(522.0000915527344 105.20001220703125) rotate(0 -51.48547430783515 -28.235661713778974)"><path d="M0.93 0.51 C-16.21 -9.04, -86.45 -47.4, -103.9 -56.98 M-0.04 -0.27 C-16.7 -9.66, -84.09 -46.29, -101.55 -55.53" stroke="#1e1e1e" stroke-width="1" fill="none"></path></g></g><mask></mask><g stroke-linecap="round"><g transform="translate(220.39999389648438 242.80001831054688) rotate(0 8.243495216490714 -37.4077319415519)"><path d="M0.82 -0.72 C3.32 -13.53, 12.11 -63.67, 14.41 -76.34 M-0.21 1.52 C2.73 -11.17, 14.41 -62.09, 16.7 -74.97" stroke="#1e1e1e" stroke-width="1" fill="none"></path></g></g><mask></mask><g stroke-linecap="round"><g transform="translate(331.6000061035156 242.80001831054688) rotate(0 -39.84094961603637 -38.07845587720163)"><path d="M0.89 -0.77 C-12.54 -13.25, -66.23 -63.3, -80.03 -75.93 M-0.1 1.44 C-13.66 -11.28, -67.33 -64.84, -80.57 -77.6" stroke="#1e1e1e" stroke-width="1" fill="none"></path></g></g><mask></mask><g stroke-linecap="round" transform="translate(443.1999206542969 236.2000274658203) rotate(0 26 25.199996948242188)"><path d="M34.69 2.05 C39.86 3.57, 45.84 7.76, 48.83 12.38 C51.82 17, 53.53 24.46, 52.64 29.78 C51.76 35.09, 47.88 40.76, 43.49 44.28 C39.1 47.8, 31.78 50.93, 26.3 50.88 C20.82 50.84, 15.03 47.5, 10.59 43.99 C6.15 40.48, 0.79 35.09, -0.32 29.83 C-1.44 24.57, 0.93 17.15, 3.88 12.4 C6.84 7.65, 11.36 2.66, 17.42 1.33 C23.49 0, 35.6 3, 40.28 4.43 C44.95 5.85, 45.47 9.68, 45.48 9.88 M17.26 1.48 C22.25 -0.73, 29.35 1.02, 34.22 2.47 C39.09 3.91, 43.56 5.74, 46.47 10.15 C49.38 14.56, 52.03 23.52, 51.67 28.91 C51.32 34.29, 48.39 38.63, 44.35 42.45 C40.31 46.27, 33.29 51.55, 27.42 51.81 C21.55 52.07, 13.51 47.5, 9.14 44 C4.77 40.51, 2.44 35.99, 1.19 30.84 C-0.06 25.7, -0.74 17.8, 1.66 13.12 C4.06 8.45, 13.27 4.33, 15.6 2.78 C17.92 1.22, 15.16 3.76, 15.61 3.8" stroke="#1e1e1e" stroke-width="1" fill="none"></path></g><g transform="translate(463.13515166766535 249.08093568608015) rotate(0 6.17999267578125 12.5)"><text x="6.17999267578125" y="0" font-family="Virgil, Segoe UI Emoji" font-size="20px" fill="#1e1e1e" text-anchor="middle" style="white-space: pre;" direction="ltr" dominant-baseline="text-before-edge">5</text></g><g stroke-linecap="round" transform="translate(555.8000183105469 231.59996032714844) rotate(0 26 25.199996948242188)"><path d="M22.6 0.37 C27.77 -0.7, 35.9 0.65, 40.6 3.67 C45.29 6.69, 49.11 13.22, 50.77 18.46 C52.44 23.71, 52.88 30.15, 50.59 35.16 C48.29 40.16, 42.24 45.95, 37.02 48.5 C31.8 51.05, 24.61 51.86, 19.28 50.47 C13.95 49.08, 8.34 44.68, 5.02 40.17 C1.69 35.66, -0.89 28.81, -0.67 23.43 C-0.44 18.04, 1.49 11.71, 6.39 7.86 C11.29 4.01, 24.25 1.19, 28.73 0.31 C33.22 -0.57, 33.24 2.18, 33.29 2.56 M14 3.05 C18.32 0.97, 25.71 0.62, 31.33 1.8 C36.96 2.99, 44.53 5.67, 47.75 10.15 C50.96 14.63, 51.1 23.15, 50.61 28.68 C50.13 34.2, 48.52 39.54, 44.85 43.3 C41.19 47.07, 34.21 51.02, 28.63 51.28 C23.06 51.54, 16.16 48.04, 11.4 44.88 C6.63 41.73, 1.47 37.47, 0.05 32.36 C-1.37 27.25, 0.55 19.21, 2.86 14.24 C5.17 9.28, 11.79 4.55, 13.93 2.58 C16.07 0.62, 15.4 2.28, 15.7 2.47" stroke="#1e1e1e" stroke-width="1" fill="none"></path></g><g transform="translate(575.5152481032123 244.48086854740828) rotate(0 6.399993896484375 12.5)"><text x="6.399993896484375" y="0" font-family="Virgil, Segoe UI Emoji" font-size="20px" fill="#1e1e1e" text-anchor="middle" style="white-space: pre;" direction="ltr" dominant-baseline="text-before-edge">6</text></g><g stroke-linecap="round" transform="translate(667.1999816894531 230.39991760253906) rotate(0 26 25.199996948242188)"><path d="M21.36 1.01 C26.49 0, 33.42 1.7, 38.1 4.14 C42.78 6.58, 47.33 10.92, 49.44 15.67 C51.55 20.42, 52.58 27.38, 50.77 32.63 C48.97 37.89, 43.44 44.42, 38.63 47.19 C33.81 49.97, 27.25 50.08, 21.89 49.28 C16.52 48.49, 10.01 46.42, 6.45 42.41 C2.9 38.41, 0.55 30.87, 0.56 25.26 C0.56 19.64, 2.15 12.79, 6.47 8.72 C10.8 4.65, 22.11 2.18, 26.49 0.83 C30.88 -0.52, 32.58 0.22, 32.79 0.61 M31.48 1.36 C36.66 1.6, 42.23 3.74, 45.5 8 C48.77 12.26, 51.17 21.1, 51.08 26.93 C50.98 32.77, 48.4 39.25, 44.91 43.02 C41.42 46.78, 35.41 48.8, 30.11 49.54 C24.81 50.28, 17.86 50.06, 13.12 47.46 C8.39 44.86, 3.49 39.3, 1.68 33.94 C-0.14 28.58, 0.37 20.49, 2.23 15.32 C4.1 10.15, 8.14 5.66, 12.86 2.94 C17.58 0.22, 27.58 -0.87, 30.55 -1.01 C33.53 -1.14, 30.7 1.41, 30.7 2.13" stroke="#1e1e1e" stroke-width="1" fill="none"></path></g><g transform="translate(687.935208125185 243.2808258227989) rotate(0 5.379997253417969 12.5)"><text x="5.379997253417969" y="0" font-family="Virgil, Segoe UI Emoji" font-size="20px" fill="#1e1e1e" text-anchor="middle" style="white-space: pre;" direction="ltr" dominant-baseline="text-before-edge">7</text></g><g stroke-linecap="round" transform="translate(560.0001525878906 342.00001525878906) rotate(0 26 25.199996948242188)"><path d="M27.56 0.32 C32.97 0.03, 39.83 2.43, 43.8 5.96 C47.76 9.49, 50.71 15.98, 51.35 21.51 C51.99 27.03, 50.65 34.59, 47.64 39.1 C44.63 43.61, 38.53 47.04, 33.3 48.57 C28.08 50.1, 21.23 50.28, 16.29 48.28 C11.34 46.29, 6.27 41.17, 3.63 36.57 C0.99 31.98, -0.6 25.89, 0.45 20.72 C1.49 15.54, 5.22 8.85, 9.91 5.54 C14.6 2.23, 25.6 1.56, 28.61 0.85 C31.61 0.13, 28.14 0.93, 27.94 1.23 M22.19 1.56 C27.64 0.14, 34.87 -0.38, 39.56 1.83 C44.25 4.03, 48.48 9.54, 50.32 14.77 C52.17 20.01, 52.25 27.72, 50.61 33.24 C48.98 38.76, 45.15 45.22, 40.52 47.88 C35.89 50.55, 28.71 50.38, 22.83 49.23 C16.95 48.08, 8.84 44.69, 5.25 40.97 C1.67 37.25, 1.42 31.99, 1.31 26.92 C1.2 21.84, 1.13 14.74, 4.59 10.54 C8.04 6.34, 19.39 3.43, 22.05 1.71 C24.71 -0.01, 20.82 0.16, 20.56 0.23" stroke="#1e1e1e" stroke-width="1" fill="none"></path></g><g transform="translate(578.4653823805561 354.8809234790489) rotate(0 7.649993896484375 12.499999999999986)"><text x="7.649993896484375" y="0" font-family="Virgil, Segoe UI Emoji" font-size="20px" fill="#1e1e1e" text-anchor="middle" style="white-space: pre;" direction="ltr" dominant-baseline="text-before-edge">8</text></g><g stroke-linecap="round"><g transform="translate(518.0000305175781 153.20001220703125) rotate(0 -21.6158068974828 41.469356696708125)"><path d="M-0.08 -0.01 C-7.28 13.73, -35.41 68.59, -42.27 82.44 M-1.58 -1.06 C-9.01 12.88, -36.51 70.31, -43.15 84" stroke="#1e1e1e" stroke-width="1" fill="none"></path></g></g><mask></mask><g stroke-linecap="round"><g transform="translate(540.4000549316406 150.00003051757812) rotate(0 21.891953594982624 41.2704715654254)"><path d="M-0.54 -0.95 C6.99 12.79, 36.86 69.46, 44.32 83.49 M1.38 1.16 C8.92 15.11, 36.86 68.58, 43.97 81.94" stroke="#1e1e1e" stroke-width="1" fill="none"></path></g></g><mask></mask><g stroke-linecap="round"><g transform="translate(553.1999816894531 138.80001831054688) rotate(0 71.34666710669637 45.690697566373274)"><path d="M0.21 0.42 C24.07 15.31, 119.85 75.12, 143.83 90.3 M-1.13 -0.41 C22.49 14.59, 118.7 76.76, 142.79 91.79" stroke="#1e1e1e" stroke-width="1" fill="none"></path></g></g><mask></mask><g stroke-linecap="round"><g transform="translate(585.1999816894531 280.4000244140625) rotate(0 0.8454074662784024 29.356067908792753)"><path d="M0.07 -0.42 C0.74 9.71, 2.7 50.21, 3.05 60.4 M-1.36 -1.68 C-0.77 8.1, 1.05 48.41, 2.02 58.48" stroke="#1e1e1e" stroke-width="1" fill="none"></path></g></g><mask></mask>
</svg>
